<svg aria-hidden="true" style="position: absolute; width: 0; height: 0; overflow: hidden;" version="1.1" xmlns="http://www.w3.org/2000/svg" xmlns:xlink="http://www.w3.org/1999/xlink">
<defs>
<symbol id="ice-cream-made-with-passion" viewBox="0 0 72 32">
<path  d="M2.431 6.125c0 0.064-0.176 0.116-0.529 0.156-0.352 0.035-0.708 0.052-1.066 0.052-0.352 0-0.578-0.014-0.676-0.043-0.098-0.035-0.147-0.090-0.147-0.165v-5.391c0-0.127 0.168-0.251 0.503-0.373 0.335-0.127 0.711-0.191 1.127-0.191 0.37 0 0.612 0.078 0.728 0.234 0.040 0.058 0.061 0.116 0.061 0.173v5.547zM7.817 6.273c-0.231 0.052-0.468 0.087-0.711 0.104-0.237 0.023-0.471 0.035-0.702 0.035-0.225 0-0.402-0.006-0.529-0.017-0.121-0.012-0.283-0.040-0.485-0.087s-0.387-0.11-0.555-0.191c-0.168-0.081-0.347-0.199-0.537-0.355-0.185-0.156-0.341-0.341-0.468-0.555-0.295-0.497-0.442-1.138-0.442-1.924 0-0.526 0.081-0.991 0.243-1.395 0.168-0.404 0.367-0.716 0.598-0.936 0.237-0.22 0.506-0.396 0.806-0.529 0.485-0.22 0.974-0.329 1.465-0.329 0.705 0 1.21 0.058 1.517 0.173 0.139 0.052 0.263 0.133 0.373 0.243s0.165 0.269 0.165 0.477-0.052 0.471-0.156 0.789c-0.098 0.318-0.243 0.477-0.433 0.477-0.058 0-0.272-0.046-0.641-0.139s-0.621-0.139-0.754-0.139c-0.202 0-0.376 0.113-0.52 0.338-0.139 0.225-0.208 0.546-0.208 0.962s0.061 0.74 0.182 0.971c0.127 0.231 0.292 0.347 0.494 0.347 0.144 0 0.404-0.058 0.78-0.173 0.381-0.121 0.604-0.182 0.667-0.182 0.179 0 0.318 0.165 0.416 0.494 0.104 0.329 0.156 0.595 0.156 0.797s-0.064 0.364-0.191 0.485c-0.121 0.116-0.298 0.202-0.529 0.26zM13.903 6.333h-3.675c-0.283 0-0.474-0.020-0.572-0.061s-0.147-0.104-0.147-0.191v-5.486c0-0.15 0.066-0.257 0.199-0.321 0.139-0.064 0.384-0.095 0.737-0.095h3.484c0.121 0 0.182 0.202 0.182 0.607 0 0.399-0.026 0.705-0.078 0.919-0.052 0.208-0.121 0.312-0.208 0.312-0.376 0-1.008-0.038-1.898-0.113v0.581c0.855-0.035 1.413-0.052 1.673-0.052 0.156 0 0.234 0.182 0.234 0.546s-0.032 0.641-0.095 0.832c-0.058 0.185-0.139 0.277-0.243 0.277l-1.569-0.035v0.555c1.005-0.075 1.699-0.113 2.080-0.113 0.121 0 0.182 0.202 0.182 0.607s-0.026 0.711-0.078 0.919c-0.052 0.208-0.121 0.312-0.208 0.312zM21.78 6.273c-0.231 0.052-0.468 0.087-0.711 0.104-0.237 0.023-0.471 0.035-0.702 0.035-0.225 0-0.402-0.006-0.529-0.017-0.121-0.012-0.283-0.040-0.485-0.087s-0.387-0.11-0.555-0.191c-0.168-0.081-0.347-0.199-0.537-0.355-0.185-0.156-0.341-0.341-0.468-0.555-0.295-0.497-0.442-1.138-0.442-1.924 0-0.526 0.081-0.991 0.243-1.395 0.168-0.404 0.367-0.716 0.598-0.936 0.237-0.22 0.506-0.396 0.806-0.529 0.485-0.22 0.974-0.329 1.465-0.329 0.705 0 1.21 0.058 1.517 0.173 0.139 0.052 0.263 0.133 0.373 0.243s0.165 0.269 0.165 0.477-0.052 0.471-0.156 0.789c-0.098 0.318-0.243 0.477-0.433 0.477-0.058 0-0.272-0.046-0.641-0.139s-0.621-0.139-0.754-0.139c-0.202 0-0.376 0.113-0.52 0.338-0.139 0.225-0.208 0.546-0.208 0.962s0.061 0.74 0.182 0.971c0.127 0.231 0.292 0.347 0.494 0.347 0.144 0 0.404-0.058 0.78-0.173 0.381-0.121 0.604-0.182 0.667-0.182 0.179 0 0.318 0.165 0.416 0.494 0.104 0.329 0.156 0.595 0.156 0.797s-0.064 0.364-0.191 0.485c-0.121 0.116-0.298 0.202-0.529 0.26zM25.899 6.082c0 0.075-0.176 0.136-0.529 0.182s-0.708 0.069-1.066 0.069c-0.352 0-0.581-0.020-0.685-0.061-0.098-0.040-0.147-0.104-0.147-0.191v-5.573c0-0.15 0.188-0.257 0.563-0.321 0.381-0.064 0.861-0.095 1.439-0.095s0.95 0.003 1.118 0.009c0.173 0 0.376 0.009 0.607 0.026s0.413 0.046 0.546 0.087c0.139 0.040 0.289 0.092 0.451 0.156 0.168 0.064 0.298 0.147 0.39 0.251 0.092 0.098 0.182 0.217 0.269 0.355 0.156 0.248 0.234 0.604 0.234 1.066 0 0.456-0.078 0.844-0.234 1.161-0.15 0.312-0.352 0.549-0.607 0.711 0.664 1.046 0.997 1.71 0.997 1.993s-0.569 0.425-1.707 0.425c-0.329 0-0.558-0.014-0.685-0.043s-0.208-0.092-0.243-0.191l-0.563-1.785-0.147-0.009v1.777zM25.899 2.971h0.225c0.335 0 0.503-0.26 0.503-0.78 0-0.266-0.046-0.454-0.139-0.563-0.087-0.11-0.188-0.165-0.303-0.165h-0.286v1.508zM34.417 6.333h-3.675c-0.283 0-0.474-0.020-0.572-0.061s-0.147-0.104-0.147-0.191v-5.486c0-0.15 0.066-0.257 0.199-0.321 0.139-0.064 0.384-0.095 0.737-0.095h3.484c0.121 0 0.182 0.202 0.182 0.607 0 0.399-0.026 0.705-0.078 0.919-0.052 0.208-0.121 0.312-0.208 0.312-0.376 0-1.008-0.038-1.898-0.113v0.581c0.855-0.035 1.413-0.052 1.673-0.052 0.156 0 0.234 0.182 0.234 0.546s-0.032 0.641-0.095 0.832c-0.058 0.185-0.139 0.277-0.243 0.277l-1.569-0.035v0.555c1.005-0.075 1.699-0.113 2.080-0.113 0.121 0 0.182 0.202 0.182 0.607s-0.026 0.711-0.078 0.919c-0.052 0.208-0.121 0.312-0.208 0.312zM38.051 5.891c-0.011 0.168-0.101 0.283-0.269 0.347-0.162 0.064-0.456 0.095-0.884 0.095s-0.786-0.038-1.075-0.113c-0.283-0.081-0.425-0.182-0.425-0.303 0-0.139 0.257-1.023 0.771-2.652 0.514-1.635 0.809-2.577 0.884-2.825 0.029-0.075 0.26-0.136 0.693-0.182 0.439-0.052 0.907-0.078 1.404-0.078 0.503 0 0.78 0.087 0.832 0.26 1.092 3.628 1.638 5.472 1.638 5.529s-0.035 0.116-0.104 0.173c-0.162 0.127-0.482 0.191-0.962 0.191-1.023 0-1.545-0.121-1.569-0.364l-0.061-0.563h-0.832l-0.043 0.485zM38.745 3.759l-0.13-1.56h-0.191l-0.147 1.56h0.468zM43.739 6.333c-0.145 0-0.355 0-0.633 0-0.272 0-0.457-0.020-0.555-0.061s-0.147-0.104-0.147-0.191v-5.469c0-0.133 0.176-0.237 0.529-0.312 0.358-0.081 0.739-0.121 1.144-0.121s0.693 0.052 0.867 0.156 0.274 0.214 0.303 0.329l0.589 2.288h0.078l0.555-2.184c0.040-0.156 0.228-0.292 0.563-0.407 0.341-0.121 0.713-0.182 1.118-0.182s0.702 0.032 0.893 0.095c0.196 0.064 0.295 0.144 0.295 0.243v5.564c0 0.075-0.165 0.136-0.494 0.182s-0.731 0.069-1.205 0.069c-0.474 0-0.711-0.084-0.711-0.251 0-0.456 0.049-1.268 0.147-2.435h-0.078l-0.451 2.262c-0.017 0.087-0.090 0.15-0.217 0.191-0.121 0.040-0.306 0.061-0.555 0.061s-0.402-0.017-0.459-0.052c-0.052-0.035-0.087-0.101-0.104-0.199l-0.468-2.262h-0.078c0.104 1.19 0.156 2.002 0.156 2.435 0 0.15-0.361 0.234-1.083 0.251zM1.348 16.333c-0.144 0-0.355 0-0.633 0-0.272 0-0.456-0.020-0.555-0.061s-0.147-0.104-0.147-0.191v-5.469c0-0.133 0.176-0.237 0.529-0.312 0.358-0.081 0.74-0.121 1.144-0.121s0.693 0.052 0.867 0.156c0.173 0.104 0.274 0.214 0.303 0.329l0.589 2.288h0.078l0.555-2.184c0.040-0.156 0.228-0.292 0.563-0.407 0.341-0.121 0.714-0.182 1.118-0.182s0.702 0.032 0.893 0.095c0.196 0.064 0.295 0.144 0.295 0.243v5.564c0 0.075-0.165 0.136-0.494 0.182s-0.731 0.069-1.205 0.069c-0.474 0-0.711-0.084-0.711-0.251 0-0.456 0.049-1.268 0.147-2.435h-0.078l-0.451 2.262c-0.017 0.087-0.090 0.15-0.217 0.191-0.121 0.040-0.306 0.061-0.555 0.061s-0.402-0.017-0.459-0.052c-0.052-0.035-0.087-0.101-0.104-0.199l-0.468-2.262h-0.078c0.104 1.19 0.156 2.002 0.156 2.435 0 0.15-0.361 0.234-1.083 0.251zM10.378 15.891c-0.012 0.168-0.101 0.283-0.269 0.347-0.162 0.064-0.456 0.095-0.884 0.095s-0.786-0.038-1.075-0.113c-0.283-0.081-0.425-0.182-0.425-0.303 0-0.139 0.257-1.023 0.771-2.652 0.514-1.635 0.809-2.577 0.884-2.825 0.029-0.075 0.26-0.136 0.693-0.182 0.439-0.052 0.907-0.078 1.404-0.078 0.503 0 0.78 0.087 0.832 0.26 1.092 3.628 1.638 5.472 1.638 5.529s-0.035 0.116-0.104 0.173c-0.162 0.127-0.482 0.191-0.962 0.191-1.023 0-1.546-0.121-1.569-0.364l-0.061-0.563h-0.832l-0.043 0.485zM11.071 13.759l-0.13-1.56h-0.191l-0.147 1.56h0.468zM17.495 16.333h-2.045c-0.283 0-0.474-0.020-0.572-0.061s-0.147-0.107-0.147-0.199v-5.469c0-0.15 0.064-0.257 0.191-0.321 0.127-0.069 0.347-0.104 0.659-0.104h1.95c1.109 0 1.875 0.22 2.297 0.659 0.422 0.433 0.633 1.225 0.633 2.375s-0.22 1.959-0.659 2.427c-0.439 0.462-1.208 0.693-2.305 0.693zM17.426 11.471c-0.139 0-0.231 0.012-0.277 0.035v3.501l0.329 0.035c0.173 0 0.303-0.139 0.39-0.416 0.092-0.277 0.139-0.757 0.139-1.439s-0.046-1.138-0.139-1.369c-0.092-0.231-0.24-0.347-0.442-0.347zM25.811 16.333h-3.675c-0.283 0-0.474-0.020-0.572-0.061s-0.147-0.104-0.147-0.191v-5.486c0-0.15 0.066-0.257 0.199-0.321 0.139-0.064 0.384-0.095 0.737-0.095h3.484c0.121 0 0.182 0.202 0.182 0.607 0 0.399-0.026 0.705-0.078 0.919-0.052 0.208-0.121 0.312-0.208 0.312-0.376 0-1.008-0.038-1.898-0.113v0.581c0.855-0.035 1.413-0.052 1.673-0.052 0.156 0 0.234 0.182 0.234 0.546s-0.032 0.641-0.095 0.832c-0.058 0.185-0.139 0.277-0.243 0.277l-1.569-0.035v0.555c1.005-0.075 1.699-0.113 2.080-0.113 0.121 0 0.182 0.202 0.182 0.607s-0.026 0.711-0.078 0.919c-0.052 0.208-0.121 0.312-0.208 0.312zM31.73 16.333c-0.277 0-0.459-0.020-0.546-0.061s-0.147-0.11-0.182-0.208l-1.915-5.287c0-0.11 0.205-0.237 0.615-0.381 0.416-0.144 0.835-0.217 1.257-0.217 0.543 0 0.832 0.17 0.867 0.511l0.295 2.747h0.121l0.243-2.747c0.029-0.341 0.419-0.511 1.17-0.511 0.289 0 0.482 0.040 0.581 0.121 0.098 0.075 0.153 0.176 0.165 0.303l0.286 2.834h0.121l0.225-2.747c0.017-0.168 0.214-0.295 0.589-0.381 0.381-0.087 0.757-0.13 1.127-0.13 0.375 0 0.63 0.055 0.763 0.165 0.139 0.11 0.208 0.225 0.208 0.347l-1.855 5.373c-0.064 0.179-0.491 0.269-1.283 0.269-0.237 0-0.396-0.020-0.477-0.061s-0.136-0.11-0.165-0.208l-0.451-1.508h-0.104l-0.459 1.508c-0.052 0.179-0.451 0.269-1.196 0.269zM40.913 16.125c0 0.064-0.176 0.116-0.529 0.156-0.352 0.035-0.708 0.052-1.066 0.052-0.352 0-0.578-0.014-0.676-0.043-0.098-0.035-0.147-0.090-0.147-0.165v-5.391c0-0.127 0.168-0.251 0.503-0.373 0.335-0.127 0.711-0.191 1.127-0.191 0.37 0 0.612 0.078 0.728 0.234 0.040 0.058 0.061 0.116 0.061 0.173v5.547zM45.64 16.125c0 0.064-0.179 0.116-0.537 0.156-0.353 0.035-0.708 0.052-1.066 0.052-0.353 0-0.578-0.014-0.676-0.043-0.093-0.035-0.139-0.090-0.139-0.165v-3.727h-1.205c-0.064 0-0.119-0.081-0.165-0.243s-0.069-0.402-0.069-0.719c0-0.324 0.035-0.612 0.104-0.867 0.069-0.26 0.162-0.39 0.277-0.39h4.689c0.087 0 0.144 0.081 0.173 0.243 0.035 0.162 0.052 0.396 0.052 0.702s-0.032 0.595-0.095 0.867c-0.064 0.272-0.15 0.407-0.26 0.407h-1.083v3.727zM50.366 16.082c0 0.075-0.176 0.136-0.529 0.182-0.347 0.046-0.699 0.069-1.057 0.069-0.352 0-0.581-0.020-0.685-0.061-0.098-0.040-0.147-0.104-0.147-0.191v-5.33c0-0.144 0.168-0.274 0.503-0.39 0.335-0.121 0.699-0.182 1.092-0.182 0.549 0 0.823 0.13 0.823 0.39v1.907h0.771v-1.725c0-0.144 0.168-0.274 0.503-0.39 0.341-0.121 0.708-0.182 1.101-0.182 0.543 0 0.815 0.13 0.815 0.39v5.512c0 0.075-0.176 0.136-0.529 0.182s-0.705 0.069-1.057 0.069c-0.352 0-0.581-0.020-0.685-0.061-0.098-0.040-0.147-0.104-0.147-0.191v-1.985h-0.771v1.985z"></path>
<path  d="M4.755 31.203c0 0.139-0.325 0.251-0.976 0.336s-1.301 0.128-1.952 0.128c-0.651 0-1.067-0.037-1.248-0.112s-0.272-0.192-0.272-0.352v-10.288c0-0.512 1.536-0.768 4.608-0.768 1.856 0 3.083 0.128 3.68 0.384 0.725 0.299 1.216 0.704 1.472 1.216 0.341 0.661 0.512 1.509 0.512 2.544 0 1.419-0.245 2.448-0.736 3.088-0.352 0.469-0.704 0.773-1.056 0.912s-0.645 0.24-0.88 0.304c-0.224 0.053-0.507 0.096-0.848 0.128-0.469 0.043-1.109 0.064-1.92 0.064l-0.384-0.016v2.432zM4.771 26.115h0.384c0.203 0 0.363-0.027 0.48-0.080 0.117-0.064 0.219-0.224 0.304-0.48 0.096-0.267 0.144-0.635 0.144-1.104 0-0.48-0.053-0.843-0.16-1.088-0.096-0.256-0.197-0.405-0.304-0.448-0.096-0.053-0.213-0.080-0.352-0.080h-0.496v3.28zM15.082 30.851c-0.021 0.309-0.187 0.523-0.496 0.64-0.299 0.117-0.843 0.176-1.632 0.176s-1.451-0.069-1.984-0.208c-0.523-0.149-0.784-0.336-0.784-0.56 0-0.256 0.475-1.888 1.424-4.896 0.949-3.019 1.493-4.757 1.632-5.216 0.053-0.139 0.48-0.251 1.28-0.336 0.811-0.096 1.675-0.144 2.592-0.144 0.928 0 1.44 0.16 1.536 0.48 2.016 6.699 3.024 10.101 3.024 10.208s-0.064 0.213-0.192 0.32c-0.299 0.235-0.891 0.352-1.776 0.352-1.888 0-2.853-0.224-2.896-0.672l-0.112-1.040h-1.536l-0.080 0.896zM16.362 26.915l-0.24-2.88h-0.352l-0.272 2.88h0.864zM30.31 30.995c-0.32 0.235-0.768 0.432-1.344 0.592-0.565 0.149-1.301 0.224-2.208 0.224-0.896 0-1.749-0.075-2.56-0.224s-1.392-0.315-1.744-0.496c-0.352-0.181-0.528-0.357-0.528-0.528 0-0.597 0.085-1.216 0.256-1.856 0.171-0.651 0.373-0.976 0.608-0.976 0.043 0 0.485 0.144 1.328 0.432s1.477 0.432 1.904 0.432c0.427 0 0.704-0.043 0.832-0.128 0.128-0.096 0.192-0.229 0.192-0.4s-0.117-0.32-0.352-0.448c-0.235-0.139-0.528-0.256-0.88-0.352-0.352-0.107-0.736-0.256-1.152-0.448-0.405-0.192-0.784-0.405-1.136-0.64s-0.645-0.565-0.88-0.992c-0.235-0.437-0.352-0.933-0.352-1.488 0-2.368 1.413-3.552 4.24-3.552 1.056 0 1.968 0.069 2.736 0.208 0.768 0.128 1.307 0.277 1.616 0.448 0.32 0.16 0.48 0.32 0.48 0.48 0 0.555-0.133 1.152-0.4 1.792-0.256 0.64-0.507 0.96-0.752 0.96-0.043 0-0.181-0.048-0.416-0.144-0.704-0.309-1.291-0.464-1.76-0.464-0.459 0-0.773 0.043-0.944 0.128-0.16 0.085-0.24 0.219-0.24 0.4 0 0.171 0.117 0.315 0.352 0.432 0.235 0.107 0.523 0.208 0.864 0.304 0.352 0.085 0.731 0.224 1.136 0.416 0.416 0.181 0.8 0.4 1.152 0.656 0.352 0.245 0.645 0.597 0.88 1.056s0.352 0.992 0.352 1.6c0 0.64-0.165 1.221-0.496 1.744-0.203 0.32-0.464 0.597-0.784 0.832zM40.779 30.995c-0.32 0.235-0.768 0.432-1.344 0.592-0.565 0.149-1.301 0.224-2.208 0.224-0.896 0-1.749-0.075-2.56-0.224s-1.392-0.315-1.744-0.496c-0.352-0.181-0.528-0.357-0.528-0.528 0-0.597 0.085-1.216 0.256-1.856 0.171-0.651 0.373-0.976 0.608-0.976 0.043 0 0.485 0.144 1.328 0.432s1.477 0.432 1.904 0.432c0.427 0 0.704-0.043 0.832-0.128 0.128-0.096 0.192-0.229 0.192-0.4s-0.117-0.32-0.352-0.448c-0.235-0.139-0.528-0.256-0.88-0.352-0.352-0.107-0.736-0.256-1.152-0.448-0.405-0.192-0.784-0.405-1.136-0.64s-0.645-0.565-0.88-0.992c-0.235-0.437-0.352-0.933-0.352-1.488 0-2.368 1.413-3.552 4.24-3.552 1.056 0 1.968 0.069 2.736 0.208 0.768 0.128 1.307 0.277 1.616 0.448 0.32 0.16 0.48 0.32 0.48 0.48 0 0.555-0.133 1.152-0.4 1.792-0.256 0.64-0.507 0.96-0.752 0.96-0.043 0-0.181-0.048-0.416-0.144-0.704-0.309-1.291-0.464-1.76-0.464-0.459 0-0.773 0.043-0.944 0.128-0.16 0.085-0.24 0.219-0.24 0.4 0 0.171 0.117 0.315 0.352 0.432 0.235 0.107 0.523 0.208 0.864 0.304 0.352 0.085 0.731 0.224 1.136 0.416 0.416 0.181 0.8 0.4 1.152 0.656 0.352 0.245 0.645 0.597 0.88 1.056s0.352 0.992 0.352 1.6c0 0.64-0.165 1.221-0.496 1.744-0.203 0.32-0.464 0.597-0.784 0.832zM47.568 31.283c0 0.117-0.325 0.213-0.976 0.288-0.651 0.064-1.307 0.096-1.968 0.096-0.651 0-1.067-0.027-1.248-0.080-0.181-0.064-0.272-0.165-0.272-0.304v-9.952c0-0.235 0.309-0.464 0.928-0.688 0.619-0.235 1.312-0.352 2.080-0.352 0.683 0 1.131 0.144 1.344 0.432 0.075 0.107 0.112 0.213 0.112 0.32v10.24zM54.262 31.811c-0.885 0-1.648-0.080-2.288-0.24-0.629-0.171-1.211-0.469-1.744-0.896-1.077-0.843-1.616-2.459-1.616-4.848 0-1.003 0.144-1.877 0.432-2.624 0.299-0.747 0.709-1.339 1.232-1.776 1.024-0.853 2.352-1.28 3.984-1.28 0.843 0 1.573 0.075 2.192 0.224 0.629 0.149 1.221 0.421 1.776 0.816 1.12 0.811 1.68 2.357 1.68 4.64 0 2.048-0.507 3.557-1.52 4.528s-2.389 1.456-4.128 1.456zM53.734 29.075c0.128 0.149 0.304 0.224 0.528 0.224s0.4-0.075 0.528-0.224c0.128-0.16 0.235-0.491 0.32-0.992 0.085-0.512 0.128-1.221 0.128-2.128s-0.043-1.605-0.128-2.096c-0.085-0.491-0.192-0.811-0.32-0.96s-0.304-0.224-0.528-0.224c-0.224 0-0.4 0.075-0.528 0.224s-0.235 0.469-0.32 0.96c-0.085 0.491-0.128 1.189-0.128 2.096s0.043 1.616 0.128 2.128c0.085 0.501 0.192 0.832 0.32 0.992zM65.411 31.203c0 0.139-0.331 0.251-0.992 0.336-0.651 0.085-1.301 0.128-1.952 0.128s-1.067-0.037-1.248-0.112c-0.181-0.075-0.272-0.192-0.272-0.352v-9.824c0-0.267 0.304-0.512 0.912-0.736 0.619-0.224 1.317-0.336 2.096-0.336 0.277 0 0.485 0.011 0.624 0.032 0.363 0.053 0.619 0.283 0.768 0.688l1.536 4.128h0.064v-3.776c0-0.267 0.304-0.512 0.912-0.736s1.301-0.336 2.080-0.336c0.672 0 1.099 0.128 1.28 0.384 0.128 0.181 0.192 0.347 0.192 0.496v10.016c0 0.139-0.331 0.251-0.992 0.336-0.651 0.085-1.371 0.128-2.16 0.128-0.779 0-1.205-0.101-1.28-0.304l-1.488-3.936h-0.080v3.776z"></path>
</symbol>
</defs>
</svg>